<svg version="1.0" xmlns="http://www.w3.org/2000/svg"
 width="625.000000pt" height="619.000000pt" viewBox="0 0 625.000000 619.000000">

<g transform="translate(0.000000,619.000000) scale(0.100000,-0.100000)"
fill="#000000" stroke="none">
<path d="M2845 6174 c-16 -2 -73 -9 -125 -15 -241 -27 -590 -123 -837 -230
-511 -221 -970 -592 -1305 -1054 -214 -295 -394 -688 -483 -1057 -68 -283 -88
-454 -89 -738 -1 -876 346 -1664 993 -2254 584 -533 1319 -819 2101 -819 118
1 262 6 320 12 655 73 1189 288 1665 670 533 427 927 1049 1079 1701 205 887
-15 1889 -569 2585 -142 178 -409 442 -565 558 -457 341 -941 545 -1480 623
-100 15 -630 28 -705 18z m545 -609 c868 -105 1592 -604 1979 -1365 165 -324
247 -648 258 -1015 12 -434 -58 -774 -241 -1166 -177 -381 -492 -746 -851
-986 -546 -365 -1230 -501 -1901 -377 -234 42 -436 112 -659 224 -743 377
-1231 1069 -1346 1910 -19 138 -16 486 5 635 96 667 447 1255 1001 1676 196
149 481 289 755 372 318 96 685 130 1000 92z"/>
<path d="M2682 4692 c-45 -108 -127 -307 -182 -442 -56 -135 -121 -292 -145
-350 -24 -58 -77 -186 -118 -285 -156 -379 -242 -586 -309 -745 -38 -91 -70
-168 -71 -173 -1 -4 226 -7 506 -7 281 0 507 -4 507 -8 0 -18 -285 -857 -420
-1237 -118 -332 -202 -587 -195 -593 7 -7 -4 -18 215 233 101 116 308 352 460
525 153 173 334 380 403 460 69 80 225 260 347 400 459 527 910 1055 910 1064
0 3 -277 7 -615 8 l-614 3 117 210 c145 258 416 723 595 1020 33 55 62 103 64
107 2 4 -306 8 -685 7 l-688 0 -82 -197z"/>
</g>
</svg>
